<svg width="52" height="55" viewBox="0 0 52 55" fill="none" xmlns="http://www.w3.org/2000/svg">
<g clip-path="url(#clip0)">
<path d="M28.1716 36.5545H17.3672V18.477H25.3214C26.8578 18.4415 28.3771 18.8091 29.7293 19.5441C31.0835 20.24 32.2278 21.2881 33.0436 22.5794C33.8122 23.8927 34.213 25.3911 34.2034 26.9153C34.2113 27.8721 34.0426 28.8221 33.7062 29.7171C33.4069 30.5215 33.006 31.2838 32.5132 31.9851C32.033 32.6492 31.5011 33.2738 30.9224 33.8529L28.1716 36.5545ZM22.1728 31.7182H26.1499L27.4094 30.4508C27.8215 30.0506 28.1984 29.6154 28.5361 29.1499C28.7756 28.8123 28.9655 28.4417 29.0996 28.0494C29.238 27.6879 29.3055 27.3027 29.2985 26.9153C29.3131 26.2682 29.1403 25.6309 28.8013 25.0809C28.4862 24.5417 28.0267 24.1025 27.4755 23.8134C26.8157 23.4534 26.0712 23.2804 25.3214 23.3131H22.0072L22.1728 31.7182Z" fill="#FA4098"/>
<path d="M30.8537 45.7939H8.68164V9.10499H25.4516C28.5673 9.06575 31.6434 9.81088 34.4 11.2728C37.0601 12.6703 39.2795 14.7879 40.8079 17.3868C42.3363 19.9857 43.1128 22.9626 43.05 25.9819C43.0654 27.857 42.7513 29.72 42.1221 31.4851C41.5226 33.1208 40.7088 34.6687 39.7026 36.0879C38.6311 37.5385 37.457 38.9095 36.1896 40.1903L30.8537 45.7939ZM13.4873 40.9576H28.8321L32.776 36.9217C33.8701 35.8229 34.8783 34.641 35.7919 33.3863C36.5461 32.3622 37.1594 31.2403 37.6149 30.0509C38.0492 28.8201 38.2623 27.5212 38.2444 26.2152C38.2867 24.046 37.7241 21.9085 36.6204 20.0448C35.5578 18.2147 33.9927 16.7323 32.1132 15.7757C30.0737 14.6867 27.7932 14.1357 25.4847 14.1746H13.5205L13.4873 40.9576Z" fill="#FA4098"/>
<path d="M33.5398 54.9993H0V-0.000639646H25.5527C30.2664 -0.0463276 34.916 1.10056 39.0745 3.33471C43.0441 5.44138 46.3563 8.61352 48.6437 12.4992C50.9311 16.3849 52.1044 20.8324 52.0332 25.3482C52.038 28.1431 51.5672 30.918 50.6413 33.553C49.7288 36.0311 48.4915 38.3755 46.9623 40.524C45.3396 42.7837 43.5326 44.9033 41.5602 46.8611L33.5398 54.9993ZM4.80565 50.1632H31.5182L38.1466 43.4925C39.9377 41.7117 41.5887 39.7936 43.0848 37.7556C44.348 35.9683 45.3628 34.0158 46.1008 31.9521C46.8643 29.8128 47.2456 27.5544 47.2275 25.2814C47.2924 21.6406 46.3505 18.0532 44.507 14.9199C42.6635 11.7866 39.9911 9.23066 36.7879 7.53729C33.3236 5.71259 29.4624 4.78416 25.5527 4.83567H4.80565V50.1632Z" fill="#FA4098"/>
</g>
<defs>
<clipPath id="clip0">
<rect width="52" height="55" fill="white"/>
</clipPath>
</defs>
</svg>
